<svg width="130" height="170" viewBox="0 0 130 170" fill="none" xmlns="http://www.w3.org/2000/svg">
<rect width="130" height="170" fill="#6246EA"/>
<path d="M25.3 105.9C25.3 94.2 34.8 88.5 53.6 88.5H75.4001C94.2001 88.5 103.7 94.2 103.7 105.9V127.6C103.7 139.2 94.2001 145 75.4001 145H53.6C34.8 145 25.3 139.2 25.3 127.6V105.9ZM91.0001 127.6V105.9C91.0001 101.8 86.2 98.6 75 98.6H54C42.8 98.6 38 101.8 38 105.9V127.6C38 131.6 42.8 134.9 54 134.9H75C86.2 134.9 91.0001 131.6 91.0001 127.6Z" fill="white"/>
</svg>
